<svg id="Line" height="512" viewBox="0 0 64 64" width="512" xmlns="http://www.w3.org/2000/svg"><path d="m60 24.368h-38a3 3 0 0 0 -3 3v27a3 3 0 0 0 3 3h18.7l7.193 4.8a2 2 0 0 0 3.107-1.668v-3.134h9a3 3 0 0 0 3-3v-27a3 3 0 0 0 -3-2.998zm-7 24h-24a1 1 0 0 1 0-2h24a1 1 0 0 1 0 2zm0-6.5h-24a1 1 0 1 1 0-2h24a1 1 0 0 1 0 2zm0-6.5h-24a1 1 0 0 1 0-2h24a1 1 0 0 1 0 2z" fill="#c4a2fc"/><g fill="#151a6a"><path d="m45 30.5v-26a3 3 0 0 0 -3-3h-38a3 3 0 0 0 -3 3v26a3 3 0 0 0 3 3h9v3.131a2 2 0 0 0 3.109 1.669l7.191-4.8h18.7a3 3 0 0 0 3-3zm-22 1a1.006 1.006 0 0 0 -.555.168l-7.445 4.963v-4.131a1 1 0 0 0 -1-1h-10a1 1 0 0 1 -1-1v-26a1 1 0 0 1 1-1h38a1 1 0 0 1 1 1v26a1 1 0 0 1 -1 1z"/><path d="m35 10.5h-24a1 1 0 0 0 0 2h24a1 1 0 0 0 0-2z"/><path d="m35 16.5h-24a1 1 0 0 0 0 2h24a1 1 0 0 0 0-2z"/><path d="m26 22.5h-15a1 1 0 0 0 0 2h15a1 1 0 0 0 0-2z"/></g></svg>